<svg xmlns="http://www.w3.org/2000/svg" viewBox="0 0 120 120">
  <defs>
    <linearGradient id="wa" x1="0" x2="1" y1="0" y2="1">
      <stop offset="0%" stop-color="#D4AF37"/>
      <stop offset="100%" stop-color="#E8B4B8"/>
    </linearGradient>
  </defs>
  <rect width="120" height="120" rx="30" fill="#0A0A0F"/>
  <path d="M40 32 C30 32 24 38 24 48 L24 72 C24 82 30 88 40 88 L80 88 C90 88 96 82 96 72 L96 48 C96 38 90 32 80 32 Z" fill="url(#wa)" opacity="0.95"/>
  <path d="M40 44 C42 38 50 34 60 34 C80 34 88 46 88 60 C88 74 76 82 60 82 C50 82 44 80 40 76" stroke="#fff" stroke-width="6" fill="none" stroke-linecap="round"/>
  <path d="M56 48 L66 58" stroke="#fff" stroke-width="6" stroke-linecap="round"/>
  <path d="M70 46 L59 56" stroke="#fff" stroke-width="6" stroke-linecap="round"/>
</svg>